<?xml version="1.0" encoding="UTF-8" standalone="no"?>
<svg
   xmlns:dc="http://purl.org/dc/elements/1.1/"
   xmlns:cc="http://creativecommons.org/ns#"
   xmlns:rdf="http://www.w3.org/1999/02/22-rdf-syntax-ns#"
   xmlns:svg="http://www.w3.org/2000/svg"
   xmlns="http://www.w3.org/2000/svg"
   xmlns:sodipodi="http://sodipodi.sourceforge.net/DTD/sodipodi-0.dtd"
   xmlns:inkscape="http://www.inkscape.org/namespaces/inkscape"
   viewBox="19 19 376.88889 376.88889"
   height="512"
   width="512"
   y="0px"
   x="0px"
   id="Layer_1"
   version="1.1"
   sodipodi:docname="rust_owo.svg"
   inkscape:version="1.0 (b51213c273, 2020-08-10)">
  <metadata
     id="metadata42">
    <rdf:RDF>
      <cc:Work
         rdf:about="">
        <dc:format>image/svg+xml</dc:format>
        <dc:type
           rdf:resource="http://purl.org/dc/dcmitype/StillImage" />
        <dc:title></dc:title>
      </cc:Work>
    </rdf:RDF>
  </metadata>
  <defs
     id="defs40" />
  <sodipodi:namedview
     pagecolor="#ffffff"
     bordercolor="#666666"
     borderopacity="1"
     objecttolerance="10"
     gridtolerance="10"
     guidetolerance="10"
     inkscape:pageopacity="0"
     inkscape:pageshadow="2"
     inkscape:window-width="1916"
     inkscape:window-height="1041"
     id="namedview38"
     showgrid="false"
     inkscape:zoom="0.74088853"
     inkscape:cx="507.73109"
     inkscape:cy="-67.337735"
     inkscape:window-x="0"
     inkscape:window-y="18"
     inkscape:window-maximized="0"
     inkscape:current-layer="Layer_1" />
  <g
     id="g96"
     transform="matrix(3.5680999,0,0,3.5680999,-50.755877,-48.82476)">
    <g
       id="g89"
       transform="translate(0.2464076,-9.2015302)">
      <path
         id="path3"
         d="m 62.953867,72.120814 -1.844528,-1.140256 c -0.01261,-0.179422 -0.0335,-0.358425 -0.05033,-0.536591 l 1.58043,-1.476464 c 0.163486,-0.150077 0.234753,-0.372259 0.19283,-0.587315 -0.0461,-0.215894 -0.197025,-0.39364 -0.402442,-0.470355 l -2.020599,-0.756678 c -0.05448,-0.17523 -0.104798,-0.349202 -0.159298,-0.522337 l 1.261825,-1.753144 c 0.129955,-0.178165 0.155111,-0.409988 0.07123,-0.613306 -0.08384,-0.20248 -0.268292,-0.347527 -0.486287,-0.38316 l -2.133787,-0.347107 c -0.07965,-0.161816 -0.167683,-0.321116 -0.255715,-0.47916 l 0.897111,-1.968198 c 0.09223,-0.200384 0.07545,-0.433465 -0.05033,-0.615403 -0.121572,-0.182776 -0.326988,-0.289675 -0.54917,-0.281291 l -2.163133,0.07546 c -0.11318,-0.140016 -0.226369,-0.278775 -0.343745,-0.415019 l 0.498865,-2.109473 c 0.05033,-0.214217 -0.01261,-0.438496 -0.16769,-0.594023 -0.155103,-0.155108 -0.38148,-0.219249 -0.595279,-0.168943 l -2.108632,0.497186 c -0.138346,-0.115703 -0.276683,-0.230148 -0.41502,-0.342078 l 0.07545,-2.165647 c 0.0084,-0.219248 -0.10061,-0.427596 -0.28087,-0.549168 -0.184455,-0.122409 -0.41502,-0.140854 -0.616241,-0.04988 l -1.967782,0.897113 c -0.158876,-0.0872 -0.318182,-0.173553 -0.479156,-0.256976 l -0.347948,-2.134207 c -0.03523,-0.216313 -0.18026,-0.399929 -0.383156,-0.483771 -0.202482,-0.08427 -0.434721,-0.05701 -0.612891,0.07126 l -1.754397,1.262246 c -0.172715,-0.05492 -0.346267,-0.107737 -0.521501,-0.158043 l -0.756677,-2.023953 c -0.07671,-0.206253 -0.254461,-0.357589 -0.470357,-0.400348 -0.215475,-0.04234 -0.437234,0.02935 -0.586898,0.189483 l -1.476461,1.584201 c -0.178165,-0.0197 -0.357587,-0.03773 -0.536591,-0.0524 l -1.140173,-1.842437 c -0.115283,-0.186549 -0.319439,-0.300156 -0.539107,-0.300156 -0.219666,0 -0.423822,0.113607 -0.538686,0.300156 l -1.140256,1.842435 c -0.179423,0.01467 -0.358845,0.0327 -0.537011,0.0524 l -1.476882,-1.584201 c -0.149658,-0.160139 -0.371841,-0.231825 -0.586897,-0.189484 -0.215894,0.04318 -0.393639,0.194095 -0.470355,0.400347 l -0.756676,2.023955 c -0.175231,0.05031 -0.348785,0.103544 -0.52192,0.158042 l -1.753981,-1.262247 c -0.178166,-0.128697 -0.410409,-0.155947 -0.613307,-0.07126 -0.202479,0.08384 -0.347945,0.267457 -0.38316,0.483771 l -0.347945,2.134206 c -0.160978,0.08342 -0.320278,0.169362 -0.47916,0.256977 L 29.741402,54.36846 c -0.199965,-0.09139 -0.433046,-0.07253 -0.614983,0.04988 -0.182776,0.121571 -0.289676,0.329919 -0.281292,0.549167 l 0.07546,2.165647 c -0.140017,0.11193 -0.278776,0.226375 -0.415858,0.342078 l -2.109054,-0.497186 c -0.214217,-0.04988 -0.438915,0.01383 -0.594023,0.168942 -0.155947,0.155528 -0.219248,0.379807 -0.168943,0.594024 l 0.496766,2.109473 c -0.115283,0.136663 -0.229308,0.275003 -0.341238,0.415019 l -2.165648,-0.07546 c -0.21841,-0.0063 -0.427176,0.09851 -0.549168,0.281291 -0.122408,0.181938 -0.140854,0.41502 -0.04988,0.615403 l 0.897112,1.968199 c -0.0872,0.158043 -0.173554,0.317343 -0.256976,0.479158 l -2.133789,0.347109 c -0.216731,0.03522 -0.399508,0.18026 -0.483769,0.383159 -0.08384,0.203317 -0.05659,0.435141 0.07126,0.613306 l 1.262247,1.753144 c -0.05492,0.173135 -0.108157,0.347107 -0.158462,0.522337 l -2.023955,0.756678 c -0.205414,0.07671 -0.356749,0.254461 -0.399509,0.470355 -0.04276,0.215475 0.02893,0.437238 0.189484,0.587316 l 1.583363,1.476464 c -0.0197,0.178164 -0.03731,0.357587 -0.0524,0.536591 l -1.842017,1.140255 c -0.186549,0.115283 -0.300155,0.31902 -0.300155,0.539107 0,0.220086 0.113606,0.423823 0.300155,0.538686 l 1.842017,1.140256 c 0.01509,0.179423 0.0327,0.358426 0.0524,0.536591 l -1.583363,1.476887 c -0.160559,0.149656 -0.232243,0.371838 -0.189484,0.586897 0.04276,0.215889 0.194095,0.393221 0.399509,0.470351 l 2.023955,0.756675 c 0.0503,0.175235 0.103545,0.349209 0.158462,0.522338 l -1.262247,1.753568 c -0.128279,0.178585 -0.155528,0.41041 -0.07126,0.612884 0.08426,0.203318 0.267457,0.348363 0.484189,0.383163 l 2.133369,0.347104 c 0.08342,0.161819 0.168942,0.321117 0.256976,0.480001 l -0.897112,1.967359 c -0.09139,0.197871 -0.07253,0.432624 0.04988,0.617078 0.122411,0.18026 0.330758,0.289261 0.549168,0.280871 l 2.16481,-0.07545 c 0.112768,0.138337 0.226374,0.276675 0.342076,0.41502 l -0.496766,2.108632 c -0.0503,0.213799 0.01299,0.435981 0.168943,0.591092 0.154689,0.159298 0.379806,0.222182 0.594023,0.171877 l 2.109054,-0.498864 c 0.137082,0.117376 0.275841,0.230564 0.415858,0.343753 l -0.07546,2.163132 c -0.0084,0.222182 0.09852,0.427598 0.281292,0.54917 0.181937,0.121571 0.415018,0.142533 0.614983,0.05033 l 1.967779,-0.897111 c 0.158463,0.08803 0.317763,0.176065 0.47916,0.255714 l 0.347945,2.133788 c 0.03522,0.217994 0.180261,0.402442 0.38316,0.486286 0.202479,0.08384 0.435141,0.05448 0.613307,-0.07123 l 1.753143,-1.261825 c 0.173135,0.05448 0.347107,0.104806 0.522338,0.155111 l 0.756677,2.024787 c 0.07671,0.205416 0.254462,0.356332 0.470356,0.398254 0.215474,0.0461 0.437238,-0.02512 0.586896,-0.188642 l 1.476883,-1.584626 c 0.178165,0.02098 0.357588,0.03773 0.53701,0.05448 l 1.140256,1.844527 c 0.114864,0.184455 0.31902,0.297644 0.538687,0.297644 0.219666,0 0.423823,-0.113189 0.539106,-0.297644 l 1.140257,-1.844527 c 0.179421,-0.01675 0.358425,-0.0335 0.536591,-0.05448 l 1.476464,1.584626 c 0.149657,0.163486 0.371839,0.234752 0.586898,0.188642 0.215889,-0.04195 0.393636,-0.192838 0.47035,-0.398254 l 0.756676,-2.024787 c 0.175234,-0.05033 0.349209,-0.100611 0.522338,-0.155111 l 1.753568,1.261825 c 0.178162,0.125768 0.41041,0.155112 0.612884,0.07123 0.202903,-0.08384 0.347948,-0.268292 0.383163,-0.486286 l 0.347941,-2.133788 c 0.160981,-0.07965 0.32028,-0.167682 0.479164,-0.255714 l 1.967781,0.897111 c 0.201636,0.09223 0.432201,0.07131 0.616656,-0.05033 0.18026,-0.121572 0.289261,-0.326988 0.280871,-0.54917 l -0.07545,-2.163132 c 0.138337,-0.113189 0.276675,-0.226377 0.41502,-0.343753 l 2.108632,0.498864 c 0.213798,0.05033 0.440176,-0.0126 0.591091,-0.171877 0.159299,-0.155111 0.222182,-0.377293 0.171878,-0.591092 l -0.498865,-2.108632 c 0.117376,-0.138345 0.230565,-0.276683 0.343754,-0.41502 l 2.163132,0.07545 c 0.217995,0.0084 0.427598,-0.100611 0.54917,-0.280871 0.121571,-0.184454 0.142532,-0.419207 0.05033,-0.617078 l -0.897111,-1.967359 c 0.08803,-0.158884 0.176064,-0.318182 0.255713,-0.480001 l 2.133789,-0.347104 c 0.217994,-0.03479 0.402442,-0.179845 0.486286,-0.383163 0.08384,-0.202474 0.05448,-0.434299 -0.07123,-0.612884 l -1.261825,-1.753568 c 0.05448,-0.173129 0.104806,-0.347103 0.15511,-0.522338 l 2.024788,-0.756675 c 0.205416,-0.07713 0.356331,-0.254462 0.398254,-0.470351 0.0461,-0.215475 -0.02513,-0.437241 -0.188643,-0.586897 l -1.580431,-1.476887 c 0.01675,-0.178165 0.0335,-0.357587 0.05033,-0.536591 l 1.844527,-1.140256 c 0.184455,-0.114863 0.297644,-0.31902 0.297644,-0.538686 0,-0.219668 -0.113189,-0.423824 -0.297644,-0.539107 z M 50.624016,87.402761 c -0.703436,-0.150915 -1.150735,-0.846813 -0.999819,-1.551087 0.150493,-0.704273 0.843455,-1.152832 1.546468,-1.001917 0.703436,0.150916 1.15158,0.846807 1.000657,1.551087 -0.150916,0.704273 -0.844286,1.152833 -1.547306,1.001917 z m -12.285,-30.650668 2.006347,2.104863 c 0.453587,0.474966 1.204814,0.492573 1.679362,0.03856 l 2.244879,-2.147202 c 4.703975,0.875733 8.686486,3.803927 10.983346,7.821233 l -1.538509,3.471073 c -0.264097,0.60073 0.0045,1.303329 0.60367,1.569529 l 2.959633,1.314229 c 0.591085,5.348723 -1.760691,10.084138 -4.523297,12.836264 L 49.998132,83.1683 c -0.641812,-0.1375 -1.273144,0.270812 -1.410644,0.913877 l -0.653976,3.052283 c -2.018087,0.913884 -4.259188,1.42532 -6.61935,1.42532 -2.41424,0 -4.703975,-0.536592 -6.758113,-1.488204 L 33.902498,84.018041 C 33.764997,83.375806 33.133664,82.966656 32.49227,83.104579 l -2.694274,0.578514 C 26.961609,80.69998 24.861359,76.440372 25.364833,70.794845 l 2.806622,-1.247156 c 0.599472,-0.266199 0.870283,-0.968797 0.604084,-1.569528 l -1.458857,-3.300873 c 2.529105,-4.466282 6.736313,-7.106477 11.022334,-7.925197 z m -6.472629,30.58359 c -0.703438,0.155111 -1.395975,-0.293449 -1.547311,-0.997722 -0.150496,-0.708469 0.296802,-1.400171 1.00024,-1.551087 0.703437,-0.150915 1.396394,0.297644 1.54731,1.001917 0.150497,0.704281 -0.297221,1.395976 -1.000239,1.546892 z M 26.893278,67.171601 c 0.291771,0.658581 -0.0051,1.43035 -0.662773,1.721703 -0.657744,0.29219 -1.427417,-0.0051 -1.719188,-0.664032 -0.291771,-0.659001 0.0051,-1.429512 0.662774,-1.721703 0.658163,-0.291771 1.427415,0.0051 1.719187,0.664032 z M 40.346201,54.96164 c 0.519824,-0.498023 1.344413,-0.47832 1.842017,0.04234 0.496766,0.521918 0.477901,1.347346 -0.04318,1.84495 -0.519822,0.498024 -1.344411,0.478741 -1.842016,-0.04276 -0.496346,-0.521079 -0.477482,-1.346508 0.04318,-1.844531 z m 15.250502,12.273262 c 0.293448,-0.658582 1.060605,-0.955803 1.718768,-0.663612 0.658164,0.291771 0.955807,1.06312 0.662359,1.721703 -0.289261,0.659 -1.060605,0.956221 -1.718769,0.66403 -0.658163,-0.291772 -0.951612,-1.062701 -0.662358,-1.722121 z"
         style="stroke-width:0.419212" />
      <path
         id="path3-6"
         d="m 124.56062,72.120839 -1.84453,-1.140256 c -0.0126,-0.179422 -0.0335,-0.358425 -0.0503,-0.536592 l 1.58043,-1.476463 c 0.16349,-0.150078 0.23476,-0.37226 0.19283,-0.587315 -0.0461,-0.215894 -0.19702,-0.39364 -0.40244,-0.470355 l -2.0206,-0.756679 c -0.0545,-0.175229 -0.10479,-0.349202 -0.15929,-0.522337 l 1.26182,-1.753144 c 0.12996,-0.178165 0.15511,-0.409987 0.0712,-0.613306 -0.0838,-0.20248 -0.26829,-0.347527 -0.48629,-0.383159 l -2.13378,-0.347108 c -0.0797,-0.161815 -0.16769,-0.321116 -0.25572,-0.47916 l 0.89711,-1.968198 c 0.0922,-0.200384 0.0755,-0.433465 -0.0503,-0.615403 -0.12157,-0.182775 -0.32698,-0.289675 -0.54917,-0.281291 l -2.16313,0.07546 c -0.11318,-0.140017 -0.22637,-0.278776 -0.34375,-0.41502 l 0.49887,-2.109473 c 0.0503,-0.214217 -0.0126,-0.438496 -0.16769,-0.594023 -0.1551,-0.155108 -0.38148,-0.219249 -0.59528,-0.168943 l -2.10863,0.497186 c -0.13835,-0.115703 -0.27668,-0.230148 -0.41502,-0.342078 l 0.0755,-2.165647 c 0.008,-0.219248 -0.10061,-0.427596 -0.28087,-0.549168 -0.18446,-0.122409 -0.41502,-0.140854 -0.61624,-0.04988 l -1.96778,0.897113 c -0.15888,-0.0872 -0.31819,-0.173552 -0.47916,-0.256975 l -0.34795,-2.134207 c -0.0352,-0.216313 -0.18026,-0.399929 -0.38315,-0.483771 -0.20249,-0.08427 -0.43473,-0.05701 -0.6129,0.07126 l -1.75439,1.262246 c -0.17272,-0.05492 -0.34627,-0.107737 -0.5215,-0.158043 l -0.75668,-2.023953 c -0.0767,-0.206253 -0.25446,-0.357589 -0.47036,-0.400348 -0.21547,-0.04234 -0.43723,0.02935 -0.5869,0.189483 l -1.47646,1.584201 c -0.17816,-0.0197 -0.35758,-0.03773 -0.53659,-0.0524 l -1.14017,-1.842437 c -0.11528,-0.186549 -0.31944,-0.300156 -0.53911,-0.300156 -0.21966,0 -0.42382,0.113607 -0.53868,0.300156 l -1.14026,1.842435 c -0.17942,0.01467 -0.35885,0.0327 -0.53701,0.0524 L 99.229416,51.33129 c -0.149658,-0.160139 -0.37184,-0.231825 -0.586897,-0.189484 -0.215894,0.04318 -0.393639,0.194095 -0.470355,0.400347 l -0.756676,2.023955 c -0.175231,0.05031 -0.348784,0.103544 -0.521919,0.158042 l -1.753982,-1.262247 c -0.178166,-0.128697 -0.410409,-0.155947 -0.613307,-0.07126 -0.202479,0.08384 -0.347945,0.267457 -0.38316,0.483771 l -0.347945,2.134206 c -0.160977,0.08342 -0.320278,0.169362 -0.47916,0.256977 l -1.967859,-0.897113 c -0.199964,-0.09139 -0.433046,-0.07253 -0.614982,0.04988 -0.182777,0.121571 -0.289677,0.329919 -0.281293,0.549167 l 0.07546,2.165647 c -0.140017,0.11193 -0.278776,0.226375 -0.415858,0.342078 L 88.002429,56.97807 c -0.214217,-0.04988 -0.438915,0.01383 -0.594023,0.168942 -0.155947,0.155528 -0.219248,0.379807 -0.168943,0.594024 l 0.496766,2.109473 c -0.115283,0.136663 -0.229308,0.275003 -0.341238,0.415019 l -2.165648,-0.07546 c -0.21841,-0.0063 -0.427176,0.09851 -0.549168,0.281291 -0.122408,0.181938 -0.140854,0.41502 -0.04988,0.615403 l 0.897112,1.968199 c -0.0872,0.158043 -0.173553,0.317343 -0.256975,0.479158 l -2.13379,0.347109 c -0.216731,0.03522 -0.399508,0.18026 -0.483769,0.383159 -0.08384,0.203317 -0.05659,0.435141 0.07126,0.613307 l 1.262247,1.753143 c -0.05492,0.173136 -0.108157,0.347108 -0.158462,0.522337 l -2.023955,0.756678 c -0.205414,0.07671 -0.356749,0.254461 -0.399509,0.470355 -0.04276,0.215476 0.02893,0.437239 0.189484,0.587316 l 1.583363,1.476465 c -0.0197,0.178164 -0.03731,0.357586 -0.0524,0.536591 l -1.842017,1.140254 c -0.186549,0.115283 -0.300155,0.319021 -0.300155,0.539108 0,0.220086 0.113606,0.423823 0.300155,0.538686 l 1.842017,1.140256 c 0.01509,0.179422 0.0327,0.358425 0.0524,0.536591 l -1.583363,1.476887 c -0.160559,0.149656 -0.232243,0.371837 -0.189484,0.586897 0.04276,0.215889 0.194095,0.393221 0.399509,0.47035 l 2.023955,0.756676 c 0.0503,0.175234 0.103545,0.349208 0.158462,0.522337 l -1.262247,1.753569 c -0.128279,0.178585 -0.155528,0.41041 -0.07126,0.612884 0.08426,0.203318 0.267457,0.348363 0.484189,0.383163 l 2.133369,0.347104 c 0.08342,0.161819 0.168942,0.321117 0.256976,0.480001 l -0.897112,1.967359 c -0.09139,0.197871 -0.07253,0.432624 0.04988,0.617078 0.122411,0.18026 0.330758,0.289261 0.549168,0.280871 l 2.16481,-0.07545 c 0.112768,0.138337 0.226374,0.276675 0.342076,0.41502 l -0.496766,2.108632 c -0.0503,0.213799 0.01299,0.435981 0.168943,0.591092 0.154689,0.159298 0.379806,0.222182 0.594023,0.171877 l 2.109054,-0.498864 c 0.137082,0.117376 0.275841,0.230564 0.415858,0.343753 l -0.07546,2.163132 c -0.0084,0.222182 0.09852,0.427598 0.281293,0.54917 0.181936,0.121571 0.415018,0.142533 0.614982,0.05033 l 1.967779,-0.897111 c 0.158463,0.08803 0.317763,0.176065 0.47916,0.255715 l 0.347945,2.133787 c 0.03522,0.217994 0.180262,0.402442 0.38316,0.486286 0.202479,0.08384 0.435141,0.05448 0.613307,-0.07123 l 1.753143,-1.261825 c 0.173135,0.05448 0.347108,0.104806 0.522338,0.155112 l 0.756677,2.024787 c 0.07671,0.205415 0.254462,0.356331 0.470356,0.398253 0.215475,0.0461 0.437239,-0.02512 0.586897,-0.188641 l 1.476882,-1.584627 c 0.17817,0.02098 0.35759,0.03773 0.53701,0.05448 l 1.14026,1.844526 c 0.11486,0.184456 0.31902,0.297645 0.53868,0.297645 0.21967,0 0.42383,-0.113189 0.53911,-0.297645 l 1.14026,-1.844526 c 0.17942,-0.01675 0.35842,-0.0335 0.53659,-0.05448 l 1.47646,1.584627 c 0.14966,0.163485 0.37184,0.234751 0.5869,0.188641 0.21589,-0.04195 0.39364,-0.192838 0.47035,-0.398253 l 0.75668,-2.024787 c 0.17523,-0.05033 0.34921,-0.100611 0.52233,-0.155112 l 1.75357,1.261825 c 0.17816,0.125768 0.41041,0.155112 0.61289,0.07123 0.2029,-0.08384 0.34794,-0.268292 0.38316,-0.486286 l 0.34794,-2.133787 c 0.16098,-0.07965 0.32028,-0.167683 0.47916,-0.255715 l 1.96778,0.897111 c 0.20164,0.09223 0.43221,0.07131 0.61666,-0.05033 0.18026,-0.121572 0.28926,-0.326988 0.28087,-0.54917 l -0.0755,-2.163132 c 0.13834,-0.113189 0.27668,-0.226377 0.41502,-0.343753 l 2.10863,0.498864 c 0.2138,0.05033 0.44018,-0.0126 0.5911,-0.171877 0.15929,-0.155111 0.22218,-0.377293 0.17187,-0.591092 l -0.49886,-2.108632 c 0.11737,-0.138345 0.23056,-0.276683 0.34375,-0.41502 l 2.16313,0.07545 c 0.218,0.0084 0.4276,-0.100611 0.54917,-0.280871 0.12158,-0.184454 0.14254,-0.419207 0.0503,-0.617078 l -0.8971,-1.967359 c 0.088,-0.158884 0.17606,-0.318182 0.25571,-0.480001 l 2.13379,-0.347104 c 0.21799,-0.03479 0.40244,-0.179845 0.48628,-0.383163 0.0838,-0.202474 0.0545,-0.434299 -0.0712,-0.612884 l -1.26182,-1.753569 c 0.0545,-0.173129 0.1048,-0.347103 0.15511,-0.522337 l 2.02479,-0.756676 c 0.20541,-0.07713 0.35633,-0.254461 0.39825,-0.47035 0.0461,-0.215475 -0.0251,-0.437241 -0.18864,-0.586897 l -1.58043,-1.476887 c 0.0168,-0.178166 0.0335,-0.357588 0.0503,-0.536591 l 1.84452,-1.140256 c 0.18446,-0.114863 0.29765,-0.319021 0.29765,-0.538686 0,-0.219669 -0.11319,-0.423825 -0.29765,-0.539108 z m -12.32985,15.281947 c -0.70343,-0.150915 -1.15073,-0.846813 -0.99982,-1.551087 0.1505,-0.704273 0.84346,-1.152832 1.54647,-1.001917 0.70344,0.150916 1.15158,0.846807 1.00066,1.551087 -0.15092,0.704273 -0.84429,1.152833 -1.54731,1.001917 z m -12.284999,-30.650669 2.006349,2.104864 c 0.45358,0.474965 1.20481,0.492572 1.67936,0.03856 l 2.24488,-2.147202 c 4.70397,0.875733 8.68649,3.803927 10.98335,7.821233 l -1.53851,3.471073 c -0.2641,0.60073 0.004,1.303329 0.60367,1.569529 l 2.95963,1.314226 c 0.59108,5.348724 -1.76069,10.084139 -4.5233,12.836265 l -2.75631,-0.592342 c -0.64181,-0.137501 -1.27315,0.270811 -1.41065,0.913876 l -0.65397,3.052284 c -2.01809,0.913884 -4.25919,1.42532 -6.61935,1.42532 -2.41424,0 -4.703979,-0.536592 -6.758116,-1.488204 l -0.653552,-3.053533 c -0.137501,-0.642235 -0.768834,-1.051385 -1.410228,-0.913462 l -2.694273,0.578514 C 88.568363,80.700004 86.468113,76.440397 86.971587,70.79487 l 2.806622,-1.247156 c 0.599472,-0.2662 0.870283,-0.968798 0.604084,-1.569528 l -1.458857,-3.300874 c 2.529105,-4.466282 6.736314,-7.106477 11.022335,-7.925197 z m -6.47263,30.583591 c -0.703438,0.155111 -1.395975,-0.293449 -1.547311,-0.997722 -0.150496,-0.708469 0.296803,-1.400171 1.00024,-1.551087 0.703437,-0.150915 1.396395,0.297644 1.547311,1.001917 0.150496,0.704281 -0.297221,1.395976 -1.00024,1.546892 z M 88.500032,67.171626 c 0.291771,0.658581 -0.0051,1.43035 -0.662773,1.721702 -0.657744,0.29219 -1.427417,-0.0051 -1.719188,-0.664031 -0.291771,-0.659002 0.0051,-1.429513 0.662774,-1.721704 0.658163,-0.291771 1.427415,0.0051 1.719187,0.664033 z M 101.95296,54.961664 c 0.51982,-0.498023 1.34441,-0.47832 1.84201,0.04234 0.49677,0.521918 0.4779,1.347347 -0.0432,1.844951 -0.51982,0.498024 -1.34441,0.478741 -1.84201,-0.04276 -0.49635,-0.521079 -0.47748,-1.346508 0.0432,-1.844531 z m 15.2505,12.273262 c 0.29345,-0.658582 1.0606,-0.955803 1.71877,-0.663611 0.65816,0.29177 0.9558,1.063119 0.66236,1.721702 -0.28927,0.659 -1.06061,0.956221 -1.71877,0.664031 -0.65817,-0.291773 -0.95162,-1.062702 -0.66236,-1.722122 z"
         style="stroke-width:0.419212" />
    </g>
    <text
       xml:space="preserve"
       style="font-size:29.4444px;line-height:1.25;font-family:'Comic Sans MS';-inkscape-font-specification:'Comic Sans MS';stroke-width:0.736111"
       x="56.29707"
       y="100.74548"
       id="text85"><tspan
         sodipodi:role="line"
         id="tspan83"
         x="56.29707"
         y="100.74548"
         style="stroke-width:0.736111">W</tspan></text>
  </g>
</svg>
